{
    "asset" : {
        "generator" : "Khronos glTF Blender I/O v0.9.2",
        "version" : "2.0"
    },
    "scene" : 0,
    "scenes" : [
        {
            "name" : "Scene",
            "nodes" : [
                0,
                29
            ]
        }
    ],
    "nodes" : [
        {
            "name" : "Camera",
            "rotation" : [
                0.483536034822464,
                0.33687159419059753,
                -0.20870360732078552,
                0.7804827094078064
            ],
            "translation" : [
                7.358891487121582,
                4.958309173583984,
                6.925790786743164
            ]
        },
        {
            "name" : "Light",
            "rotation" : [
                0.16907575726509094,
                0.7558803558349609,
                -0.27217137813568115,
                0.570947527885437
            ],
            "translation" : [
                4.076245307922363,
                5.903861999511719,
                -1.0054539442062378
            ]
        },
        {
            "name" : "Bone.Mouth.5",
            "rotation" : [
                0,
                0.526210367679596,
                0,
                0.8503544330596924
            ],
            "translation" : [
                0.07585114240646362,
                1.1283644437789917,
                0.002334591466933489
            ]
        },
        {
            "name" : "Bone.Mouth.4",
            "rotation" : [
                0,
                0.526210367679596,
                0,
                0.8503544330596924
            ],
            "translation" : [
                0.09800034761428833,
                1.1310902833938599,
                0.10234205424785614
            ]
        },
        {
            "name" : "Bone.Mouth.0",
            "rotation" : [
                0,
                0.526210367679596,
                0,
                0.8503544330596924
            ],
            "translation" : [
                0.11270634084939957,
                1.1359044313430786,
                -0.09505963325500488
            ]
        },
        {
            "name" : "Bone.Mouth.1",
            "rotation" : [
                0,
                0.526210367679596,
                0,
                0.8503544330596924
            ],
            "translation" : [
                0.10341870039701462,
                1.1088955402374268,
                -0.07930229604244232
            ]
        },
        {
            "name" : "Bone.Mouth.2",
            "rotation" : [
                0,
                0.5262103080749512,
                0,
                0.8503544330596924
            ],
            "scale" : [
                1,
                0.9999998211860657,
                1
            ],
            "translation" : [
                0.05693916231393814,
                1.0888454914093018,
                0.0016248761676251888
            ]
        },
        {
            "name" : "Bone.Mouth.3",
            "rotation" : [
                0,
                0.526210367679596,
                0,
                0.8503544330596924
            ],
            "translation" : [
                0.09006056934595108,
                1.1100212335586548,
                0.0895441472530365
            ]
        },
        {
            "children" : [
                2,
                3,
                4,
                5,
                6,
                7
            ],
            "name" : "Bone.Chin",
            "rotation" : [
                0.4905509650707245,
                0.5092737674713135,
                0.5092737674713135,
                0.4905509650707245
            ],
            "translation" : [
                -0.03165613114833832,
                -0.8165088891983032,
                -0.488558828830719
            ]
        },
        {
            "name" : "Bone.Eye.Left.0",
            "rotation" : [
                0.14915715157985687,
                0.6911962032318115,
                0.6911962032318115,
                0.14915715157985687
            ],
            "translation" : [
                0.21088536083698273,
                0.374387264251709,
                0.7767288088798523
            ]
        },
        {
            "name" : "Bone.Eye.Left.5",
            "rotation" : [
                0.14915715157985687,
                0.6911962032318115,
                0.6911962032318115,
                0.14915715157985687
            ],
            "translation" : [
                0.3325979709625244,
                0.4305797815322876,
                0.7490530014038086
            ]
        },
        {
            "name" : "Bone.Eye.Left.4",
            "rotation" : [
                0.14915715157985687,
                0.6911962032318115,
                0.6911962032318115,
                0.14915715157985687
            ],
            "translation" : [
                0.5089676976203918,
                0.3896055221557617,
                0.698143720626831
            ]
        },
        {
            "name" : "Bone.Eye.Left.3",
            "rotation" : [
                0.14915715157985687,
                0.6911962032318115,
                0.6911962032318115,
                0.14915715157985687
            ],
            "translation" : [
                0.5380664467811584,
                0.13625335693359375,
                0.698143720626831
            ]
        },
        {
            "name" : "Bone.Eye.Left.2",
            "rotation" : [
                0.14915715157985687,
                0.6911962032318115,
                0.6911962032318115,
                0.14915715157985687
            ],
            "translation" : [
                0.35116809606552124,
                0.06640446186065674,
                0.7241987586021423
            ]
        },
        {
            "name" : "Bone.Eye.Left.1",
            "rotation" : [
                0.14915715157985687,
                0.6911962032318115,
                0.6911962032318115,
                0.14915715157985687
            ],
            "translation" : [
                0.2025342583656311,
                0.12368446588516235,
                0.7354324460029602
            ]
        },
        {
            "name" : "Bone.Eye.Right.4",
            "rotation" : [
                0.14915715157985687,
                0.6911962032318115,
                0.6911962032318115,
                0.14915715157985687
            ],
            "translation" : [
                -0.5154741406440735,
                0.37164878845214844,
                0.6272402405738831
            ]
        },
        {
            "name" : "Bone.Eye.Right.5",
            "rotation" : [
                0.14915715157985687,
                0.6911962032318115,
                0.6911962032318115,
                0.14915715157985687
            ],
            "translation" : [
                -0.3613455295562744,
                0.4170299172401428,
                0.7177177667617798
            ]
        },
        {
            "name" : "Bone.Eye.Right.0",
            "rotation" : [
                0.14915715157985687,
                0.6911962032318115,
                0.6911962032318115,
                0.14915715157985687
            ],
            "translation" : [
                -0.19813744723796844,
                0.3706420660018921,
                0.7616384029388428
            ]
        },
        {
            "name" : "Bone.Eye.Right.1",
            "rotation" : [
                0.14915715157985687,
                0.6911962032318115,
                0.6911962032318115,
                0.14915715157985687
            ],
            "translation" : [
                -0.194056436419487,
                0.13625335693359375,
                0.7526119947433472
            ]
        },
        {
            "name" : "Bone.Eye.Right.2",
            "rotation" : [
                0.14915715157985687,
                0.6911962032318115,
                0.6911962032318115,
                0.14915715157985687
            ],
            "translation" : [
                -0.3640936613082886,
                0.06640446186065674,
                0.7311477661132812
            ]
        },
        {
            "name" : "Bone.Eye.Right.3",
            "rotation" : [
                0.14915715157985687,
                0.6911962032318115,
                0.6911962032318115,
                0.14915715157985687
            ],
            "translation" : [
                -0.5127274990081787,
                0.12368446588516235,
                0.6853342056274414
            ]
        },
        {
            "name" : "Bone.Ear.Left",
            "rotation" : [
                -0.4995529055595398,
                -0.8353928923606873,
                -0.0015087241772562265,
                0.22926706075668335
            ],
            "scale" : [
                0.9999998807907104,
                0.9999997019767761,
                1
            ],
            "translation" : [
                0.6940208673477173,
                -0.02193605899810791,
                -0.282426655292511
            ]
        },
        {
            "name" : "Bone.Ear.Right",
            "rotation" : [
                0.06838010996580124,
                -0.33892491459846497,
                0.49493417143821716,
                0.7971789240837097
            ],
            "scale" : [
                0.9999999403953552,
                1,
                0.9999999403953552
            ],
            "translation" : [
                -0.7064981460571289,
                -0.02193605899810791,
                -0.282426655292511
            ]
        },
        {
            "name" : "Bone.Brow.Left.0",
            "rotation" : [
                0.14915715157985687,
                0.6911962032318115,
                0.6911962032318115,
                0.14915715157985687
            ],
            "translation" : [
                0.1706518530845642,
                0.7069662809371948,
                0.7581698298454285
            ]
        },
        {
            "name" : "Bone.Brow.Left.1",
            "rotation" : [
                0.14915715157985687,
                0.6911962032318115,
                0.6911962032318115,
                0.14915715157985687
            ],
            "translation" : [
                0.3069770932197571,
                0.7364000678062439,
                0.7450670003890991
            ]
        },
        {
            "name" : "Bone.Brow.Right.1",
            "rotation" : [
                0.14915715157985687,
                0.6911962032318115,
                0.6911962032318115,
                0.14915715157985687
            ],
            "translation" : [
                -0.3172658085823059,
                0.7380139231681824,
                0.7339393496513367
            ]
        },
        {
            "name" : "Bone.Brow.Right.0",
            "rotation" : [
                0.14915715157985687,
                0.6911962032318115,
                0.6911962032318115,
                0.14915715157985687
            ],
            "translation" : [
                -0.16768716275691986,
                0.7043457627296448,
                0.7552587985992432
            ]
        },
        {
            "children" : [
                8,
                9,
                10,
                11,
                12,
                13,
                14,
                15,
                16,
                17,
                18,
                19,
                20,
                21,
                22,
                23,
                24,
                25,
                26
            ],
            "name" : "Bone.Head"
        },
        {
            "mesh" : 0,
            "name" : "Suzanne",
            "skin" : 0
        },
        {
            "children" : [
                1,
                28,
                27
            ],
            "name" : "Armature"
        }
    ],
    "meshes" : [
        {
            "name" : "Suzanne",
            "primitives" : [
                {
                    "attributes" : {
                        "POSITION" : 0,
                        "NORMAL" : 1,
                        "TEXCOORD_0" : 2,
                        "JOINTS_0" : 3,
                        "WEIGHTS_0" : 4
                    },
                    "indices" : 5
                }
            ]
        }
    ],
    "skins" : [
        {
            "inverseBindMatrices" : 6,
            "joints" : [
                27,
                8,
                2,
                3,
                4,
                5,
                6,
                7,
                9,
                10,
                11,
                12,
                13,
                14,
                15,
                16,
                17,
                18,
                19,
                20,
                21,
                22,
                23,
                24,
                25,
                26
            ],
            "name" : "Armature"
        }
    ],
    "accessors" : [
        {
            "bufferView" : 0,
            "componentType" : 5126,
            "count" : 1792,
            "max" : [
                1.3671875,
                0.984375,
                0.8515625
            ],
            "min" : [
                -1.3671875,
                -0.984375,
                -0.8515625
            ],
            "type" : "VEC3"
        },
        {
            "bufferView" : 1,
            "componentType" : 5126,
            "count" : 1792,
            "type" : "VEC3"
        },
        {
            "bufferView" : 2,
            "componentType" : 5126,
            "count" : 1792,
            "type" : "VEC2"
        },
        {
            "bufferView" : 3,
            "componentType" : 5123,
            "count" : 1792,
            "type" : "VEC4"
        },
        {
            "bufferView" : 4,
            "componentType" : 5126,
            "count" : 1792,
            "type" : "VEC4"
        },
        {
            "bufferView" : 5,
            "componentType" : 5123,
            "count" : 2664,
            "type" : "SCALAR"
        },
        {
            "bufferView" : 6,
            "componentType" : 5126,
            "count" : 26,
            "type" : "MAT4"
        }
    ],
    "bufferViews" : [
        {
            "buffer" : 0,
            "byteLength" : 21504,
            "byteOffset" : 0
        },
        {
            "buffer" : 0,
            "byteLength" : 21504,
            "byteOffset" : 21504
        },
        {
            "buffer" : 0,
            "byteLength" : 14336,
            "byteOffset" : 43008
        },
        {
            "buffer" : 0,
            "byteLength" : 14336,
            "byteOffset" : 57344
        },
        {
            "buffer" : 0,
            "byteLength" : 28672,
            "byteOffset" : 71680
        },
        {
            "buffer" : 0,
            "byteLength" : 5328,
            "byteOffset" : 100352
        },
        {
            "buffer" : 0,
            "byteLength" : 1664,
            "byteOffset" : 105680
        }
    ],
    "buffers" : [
        {
            "byteLength" : 107344,
            "uri" : "data:application/octet-stream;base64,"
        }
    ]
}
