{
    "asset" : {
        "generator" : "Khronos glTF Blender I/O v0.9.2",
        "version" : "2.0"
    },
    "scene" : 0,
    "scenes" : [
        {
            "name" : "Scene",
            "nodes" : [
                0,
                11
            ]
        }
    ],
    "nodes" : [
        {
            "name" : "Camera",
            "rotation" : [
                0.483536034822464,
                0.33687159419059753,
                -0.20870360732078552,
                0.7804827094078064
            ],
            "translation" : [
                7.358891487121582,
                4.958309173583984,
                6.925790786743164
            ]
        },
        {
            "name" : "Light",
            "rotation" : [
                0.16907575726509094,
                0.7558803558349609,
                -0.27217137813568115,
                0.570947527885437
            ],
            "translation" : [
                4.076245307922363,
                5.903861999511719,
                -1.0054539442062378
            ]
        },
        {
            "name" : "Bone.Mouth.5",
            "rotation" : [
                0.036130670458078384,
                0.8132535815238953,
                -0.295804500579834,
                0.49981290102005005
            ],
            "scale" : [
                0.9999999403953552,
                0.9999998211860657,
                1
            ],
            "translation" : [
                0.15038807690143585,
                1.1442791223526,
                -0.2001190036535263
            ]
        },
        {
            "name" : "Bone.Mouth.4",
            "rotation" : [
                0.036130670458078384,
                0.8132535815238953,
                -0.295804500579834,
                0.49981290102005005
            ],
            "scale" : [
                0.9999999403953552,
                0.9999998211860657,
                1
            ],
            "translation" : [
                0.24199813604354858,
                1.132049798965454,
                -0.15587477385997772
            ]
        },
        {
            "name" : "Bone.Mouth.0",
            "rotation" : [
                0.03613065555691719,
                0.81325364112854,
                -0.295804500579834,
                0.49981290102005005
            ],
            "scale" : [
                1,
                0.9999999403953552,
                1
            ],
            "translation" : [
                0.09319765120744705,
                1.1313508749008179,
                -0.28650715947151184
            ]
        },
        {
            "name" : "Bone.Mouth.1",
            "rotation" : [
                0.036130666732788086,
                0.8132535219192505,
                -0.2958044707775116,
                0.4998129606246948
            ],
            "scale" : [
                0.9999999403953552,
                0.9999998211860657,
                1
            ],
            "translation" : [
                0.09169242531061172,
                1.1141245365142822,
                -0.2588481605052948
            ]
        },
        {
            "name" : "Bone.Mouth.2",
            "rotation" : [
                0.03613065555691719,
                0.8132535815238953,
                -0.2958044707775116,
                0.49981290102005005
            ],
            "scale" : [
                1,
                0.9999996423721313,
                0.9999999403953552
            ],
            "translation" : [
                0.126616433262825,
                1.1225460767745972,
                -0.17041203379631042
            ]
        },
        {
            "name" : "Bone.Mouth.3",
            "rotation" : [
                0.036130666732788086,
                0.8132535219192505,
                -0.2958044707775116,
                0.4998129606246948
            ],
            "scale" : [
                0.9999999403953552,
                0.9999998211860657,
                1
            ],
            "translation" : [
                0.22044764459133148,
                1.1194777488708496,
                -0.14892883598804474
            ]
        },
        {
            "children" : [
                2,
                3,
                4,
                5,
                6,
                7
            ],
            "name" : "Bone.Chin",
            "rotation" : [
                0.8357381820678711,
                0.15507161617279053,
                0.29326096177101135,
                0.4375986158847809
            ],
            "scale" : [
                0.9999999403953552,
                0.9999999403953552,
                0.9999997615814209
            ],
            "translation" : [
                0.004555772989988327,
                -0.22144335508346558,
                -0.36088261008262634
            ]
        },
        {
            "children" : [
                8
            ],
            "name" : "Bone.Head"
        },
        {
            "mesh" : 0,
            "name" : "Suzanne",
            "skin" : 0
        },
        {
            "children" : [
                1,
                10,
                9
            ],
            "name" : "Armature"
        }
    ],
    "meshes" : [
        {
            "name" : "Suzanne",
            "primitives" : [
                {
                    "attributes" : {
                        "POSITION" : 0,
                        "NORMAL" : 1,
                        "TEXCOORD_0" : 2,
                        "JOINTS_0" : 3,
                        "WEIGHTS_0" : 4
                    },
                    "indices" : 5
                }
            ]
        }
    ],
    "skins" : [
        {
            "inverseBindMatrices" : 6,
            "joints" : [
                9,
                8,
                2,
                3,
                4,
                5,
                6,
                7
            ],
            "name" : "Armature"
        }
    ],
    "accessors" : [
        {
            "bufferView" : 0,
            "componentType" : 5126,
            "count" : 1968,
            "max" : [
                1.3671875,
                0.984375,
                0.8515625
            ],
            "min" : [
                -1.3671875,
                -0.984375,
                -0.8515625
            ],
            "type" : "VEC3"
        },
        {
            "bufferView" : 1,
            "componentType" : 5126,
            "count" : 1968,
            "type" : "VEC3"
        },
        {
            "bufferView" : 2,
            "componentType" : 5126,
            "count" : 1968,
            "type" : "VEC2"
        },
        {
            "bufferView" : 3,
            "componentType" : 5123,
            "count" : 1968,
            "type" : "VEC4"
        },
        {
            "bufferView" : 4,
            "componentType" : 5126,
            "count" : 1968,
            "type" : "VEC4"
        },
        {
            "bufferView" : 5,
            "componentType" : 5123,
            "count" : 2904,
            "type" : "SCALAR"
        },
        {
            "bufferView" : 6,
            "componentType" : 5126,
            "count" : 8,
            "type" : "MAT4"
        }
    ],
    "bufferViews" : [
        {
            "buffer" : 0,
            "byteLength" : 23616,
            "byteOffset" : 0
        },
        {
            "buffer" : 0,
            "byteLength" : 23616,
            "byteOffset" : 23616
        },
        {
            "buffer" : 0,
            "byteLength" : 15744,
            "byteOffset" : 47232
        },
        {
            "buffer" : 0,
            "byteLength" : 15744,
            "byteOffset" : 62976
        },
        {
            "buffer" : 0,
            "byteLength" : 31488,
            "byteOffset" : 78720
        },
        {
            "buffer" : 0,
            "byteLength" : 5808,
            "byteOffset" : 110208
        },
        {
            "buffer" : 0,
            "byteLength" : 512,
            "byteOffset" : 116016
        }
    ],
    "buffers" : [
        {
            "byteLength" : 116528,
            "uri" : "data:application/octet-stream;base64,"
        }
    ]
}
