{
    "asset" : {
        "generator" : "Khronos glTF Blender I/O v0.9.2",
        "version" : "2.0"
    },
    "scene" : 0,
    "scenes" : [
        {
            "name" : "Scene",
            "nodes" : [
                0,
                1,
                7
            ]
        }
    ],
    "nodes" : [
        {
            "name" : "Light",
            "rotation" : [
                0.16907575726509094,
                0.7558803558349609,
                -0.27217137813568115,
                0.570947527885437
            ],
            "translation" : [
                4.076245307922363,
                5.903861999511719,
                -1.0054539442062378
            ]
        },
        {
            "name" : "Camera",
            "rotation" : [
                0.483536034822464,
                0.33687159419059753,
                -0.20870360732078552,
                0.7804827094078064
            ],
            "translation" : [
                7.358891487121582,
                4.958309173583984,
                6.925790786743164
            ]
        },
        {
            "name" : "Bone.003",
            "rotation" : [
                -0.17169855535030365,
                -0.6077437996864319,
                -0.45239558815956116,
                0.629686713218689
            ],
            "scale" : [
                0.9999998807907104,
                1,
                0.9999999403953552
            ],
            "translation" : [
                7.912092314654728e-08,
                1.4369189739227295,
                2.9802322387695312e-08
            ]
        },
        {
            "children" : [
                2
            ],
            "name" : "Bone.002",
            "rotation" : [
                0.04300868138670921,
                -0.14602386951446533,
                0.052637070417404175,
                0.9869430661201477
            ],
            "scale" : [
                0.9999999403953552,
                1,
                1.0000001192092896
            ],
            "translation" : [
                -1.0615011092340865e-09,
                0.9117035269737244,
                2.9802322387695312e-08
            ]
        },
        {
            "children" : [
                3
            ],
            "name" : "Bone.001",
            "rotation" : [
                -0.07705248147249222,
                0.8962188363075256,
                0.17194879055023193,
                0.40160736441612244
            ],
            "scale" : [
                1,
                1,
                0.9999999403953552
            ],
            "translation" : [
                0,
                1,
                0
            ]
        },
        {
            "children" : [
                4
            ],
            "name" : "Bone"
        },
        {
            "mesh" : 0,
            "name" : "Cube",
            "scale" : [
                1,
                1,
                7.789928913116455
            ],
            "skin" : 0
        },
        {
            "children" : [
                6,
                5
            ],
            "name" : "Armature",
            "rotation" : [
                0.7071067690849304,
                0,
                0,
                0.7071067690849304
            ],
            "scale" : [
                5.582363128662109,
                5.582363128662109,
                5.582363128662109
            ],
            "translation" : [
                5.9801506996154785,
                0,
                -7.132565975189209
            ]
        }
    ],
    "materials" : [
        {
            "name" : "Material",
            "pbrMetallicRoughness" : {
                "baseColorFactor" : [
                    0.800000011920929,
                    0.800000011920929,
                    0.800000011920929,
                    1
                ],
                "metallicFactor" : 0,
                "roughnessFactor" : 0.5
            }
        }
    ],
    "meshes" : [
        {
            "name" : "Cube.006",
            "primitives" : [
                {
                    "attributes" : {
                        "POSITION" : 0,
                        "NORMAL" : 1,
                        "TANGENT" : 2,
                        "TEXCOORD_0" : 3,
                        "JOINTS_0" : 4,
                        "WEIGHTS_0" : 5
                    },
                    "indices" : 6,
                    "material" : 0
                }
            ]
        }
    ],
    "skins" : [
        {
            "inverseBindMatrices" : 7,
            "joints" : [
                5,
                4,
                3,
                2
            ],
            "name" : "Armature"
        }
    ],
    "accessors" : [
        {
            "bufferView" : 0,
            "componentType" : 5126,
            "count" : 264,
            "max" : [
                2.013155698776245,
                1.4498332738876343,
                1.1236189603805542
            ],
            "min" : [
                -1.3011388778686523,
                -1.048913836479187,
                -0.9766086339950562
            ],
            "type" : "VEC3"
        },
        {
            "bufferView" : 1,
            "componentType" : 5126,
            "count" : 264,
            "type" : "VEC3"
        },
        {
            "bufferView" : 2,
            "componentType" : 5126,
            "count" : 264,
            "type" : "VEC4"
        },
        {
            "bufferView" : 3,
            "componentType" : 5126,
            "count" : 264,
            "type" : "VEC2"
        },
        {
            "bufferView" : 4,
            "componentType" : 5123,
            "count" : 264,
            "type" : "VEC4"
        },
        {
            "bufferView" : 5,
            "componentType" : 5126,
            "count" : 264,
            "type" : "VEC4"
        },
        {
            "bufferView" : 6,
            "componentType" : 5123,
            "count" : 396,
            "type" : "SCALAR"
        },
        {
            "bufferView" : 7,
            "componentType" : 5126,
            "count" : 4,
            "type" : "MAT4"
        }
    ],
    "bufferViews" : [
        {
            "buffer" : 0,
            "byteLength" : 3168,
            "byteOffset" : 0
        },
        {
            "buffer" : 0,
            "byteLength" : 3168,
            "byteOffset" : 3168
        },
        {
            "buffer" : 0,
            "byteLength" : 4224,
            "byteOffset" : 6336
        },
        {
            "buffer" : 0,
            "byteLength" : 2112,
            "byteOffset" : 10560
        },
        {
            "buffer" : 0,
            "byteLength" : 2112,
            "byteOffset" : 12672
        },
        {
            "buffer" : 0,
            "byteLength" : 4224,
            "byteOffset" : 14784
        },
        {
            "buffer" : 0,
            "byteLength" : 792,
            "byteOffset" : 19008
        },
        {
            "buffer" : 0,
            "byteLength" : 256,
            "byteOffset" : 19800
        }
    ],
    "buffers" : [
        {
            "byteLength" : 20056,
            "uri" : "data:application/octet-stream;base64,"
        }
    ]
}
